<svg width="21" height="32" viewBox="0 0 21 32" fill="none" xmlns="http://www.w3.org/2000/svg">
<path d="M14.2955 18.8087L16.0107 18.9702V31.4976L11.273 26.9582V19.7364L12.649 20.3393L14.2955 18.8087ZM6.74449 18.8087L5.02834 18.9702V31.4976L9.76603 26.9582V19.7364L8.39007 20.3393L6.74449 18.8087ZM19.7372 10.9603L20.2923 12.6939L18.6261 13.7019L18.4865 15.503L16.5366 15.9386L15.7205 17.5868L13.7215 17.3973L12.3257 18.6912L10.52 17.8996L8.71425 18.6912L7.3185 17.393L5.3195 17.5825L4.50336 15.9344L2.55347 15.503L2.41393 13.7044L0.742963 12.693L1.29809 10.9594L0.119995 9.49903L1.30187 8.04024L0.742963 6.3101L2.41015 5.3021L2.54969 3.50336L4.50336 3.07209L5.3195 1.42397L7.3185 1.61337L8.71425 0.315308L10.52 1.10686L12.3257 0.315308L13.7215 1.61337L15.7205 1.42397L16.5366 3.07209L18.4865 3.50763L18.6261 5.3063L20.2923 6.3143L19.7372 8.0479L20.92 9.49903L19.7372 10.9603ZM16.0192 9.49903C16.0192 8.53047 15.6991 7.58367 15.0994 6.77834C14.4997 5.97302 13.6473 5.34534 12.6501 4.97469C11.6528 4.60404 10.5554 4.50706 9.49672 4.69602C8.43802 4.88497 7.46555 5.35138 6.70227 6.03625C5.93899 6.72112 5.4192 7.5937 5.20861 8.54365C4.99802 9.49359 5.1061 10.4782 5.51918 11.3731C5.93227 12.2679 6.6318 13.0327 7.52932 13.5708C8.42684 14.1089 9.48203 14.3961 10.5615 14.3961C12.0083 14.3941 13.3951 13.8775 14.4182 12.9596C15.4412 12.0416 16.0169 10.7972 16.0192 9.49903ZM10.5615 5.95489C9.78028 5.95489 9.01663 6.16275 8.36709 6.55217C7.71755 6.94159 7.2113 7.4951 6.91234 8.14269C6.61339 8.79028 6.53517 9.50287 6.68756 10.1903C6.83996 10.8778 7.21614 11.5093 7.76852 12.005C8.3209 12.5006 9.02468 12.8382 9.79086 12.9749C10.557 13.1117 11.3512 13.0415 12.0729 12.7733C12.7947 12.505 13.4116 12.0508 13.8456 11.468C14.2796 10.8852 14.5112 10.2 14.5113 9.49903C14.5083 8.56014 14.0911 7.66051 13.3509 6.99685C12.6108 6.33319 11.6078 5.95949 10.5615 5.95747V5.95489Z" fill="white"/>
</svg>
