<svg width="24" height="24" viewBox="0 0 24 24" fill="none" xmlns="http://www.w3.org/2000/svg">
<path d="M12.6667 20V14.6667C12.6667 14.1362 12.8774 13.6275 13.2525 13.2525C13.6275 12.8774 14.1362 12.6667 14.6667 12.6667H20C20.5304 12.6667 21.0391 12.8774 21.4142 13.2525C21.7893 13.6275 22 14.1362 22 14.6667V20C22 20.5304 21.7893 21.0391 21.4142 21.4142C21.0391 21.7893 20.5304 22 20 22H14.6667C14.1362 22 13.6275 21.7893 13.2525 21.4142C12.8774 21.0391 12.6667 20.5304 12.6667 20ZM20 20.6667C20.1768 20.6667 20.3464 20.5964 20.4714 20.4714C20.5964 20.3464 20.6667 20.1768 20.6667 20V14.6667C20.6667 14.4899 20.5964 14.3203 20.4714 14.1953C20.3464 14.0702 20.1768 14 20 14H14.6667C14.4899 14 14.3203 14.0702 14.1953 14.1953C14.0702 14.3203 14 14.4899 14 14.6667V20C14 20.1768 14.0702 20.3464 14.1953 20.4714C14.3203 20.5964 14.4899 20.6667 14.6667 20.6667H20Z" fill="#4A5568"/>
<path d="M2.00004 20V14.6667C2.00004 14.1362 2.21076 13.6275 2.58583 13.2525C2.9609 12.8774 3.46961 12.6667 4.00004 12.6667H9.33337C9.86381 12.6667 10.3725 12.8774 10.7476 13.2525C11.1227 13.6275 11.3334 14.1362 11.3334 14.6667V20C11.3334 20.5304 11.1227 21.0391 10.7476 21.4142C10.3725 21.7893 9.86381 22 9.33337 22H4.00004C3.46961 22 2.9609 21.7893 2.58583 21.4142C2.21076 21.0391 2.00004 20.5304 2.00004 20V20ZM9.33337 20.6667C9.51019 20.6667 9.67976 20.5964 9.80478 20.4714C9.9298 20.3464 10 20.1768 10 20V14.6667C10 14.4899 9.9298 14.3203 9.80478 14.1953C9.67976 14.0702 9.51019 14 9.33337 14H4.00004C3.82323 14 3.65366 14.0702 3.52864 14.1953C3.40361 14.3203 3.33338 14.4899 3.33338 14.6667L3.33338 20C3.33338 20.1768 3.40361 20.3464 3.52864 20.4714C3.65366 20.5964 3.82323 20.6667 4.00004 20.6667H9.33337Z" fill="#4A5568"/>
<path d="M11.3334 6.66664C11.3334 7.58962 11.0597 8.49188 10.5469 9.25931C10.0341 10.0267 9.30528 10.6249 8.45256 10.9781C7.59984 11.3313 6.66153 11.4237 5.75629 11.2436C4.85104 11.0636 4.01952 10.6191 3.36688 9.96648C2.71423 9.31383 2.26977 8.48231 2.08971 7.57707C1.90965 6.67182 2.00206 5.73351 2.35527 4.88079C2.70848 4.02807 3.30662 3.29923 4.07405 2.78645C4.84148 2.27367 5.74373 1.99998 6.66671 1.99998C7.90395 2.00139 9.09012 2.49351 9.96498 3.36837C10.8398 4.24324 11.332 5.4294 11.3334 6.66664ZM3.33337 6.66664C3.33337 7.32592 3.52887 7.97038 3.89514 8.51854C4.26141 9.06671 4.78201 9.49395 5.3911 9.74624C6.00018 9.99853 6.67041 10.0645 7.31701 9.93593C7.96361 9.80731 8.55756 9.48984 9.02373 9.02367C9.48991 8.55749 9.80737 7.96355 9.93599 7.31695C10.0646 6.67034 9.9986 6.00012 9.74631 5.39103C9.49401 4.78195 9.06677 4.26135 8.51861 3.89508C7.97044 3.52881 7.32598 3.33331 6.66671 3.33331C5.78298 3.33437 4.93575 3.6859 4.31085 4.31079C3.68596 4.93568 3.33443 5.78291 3.33337 6.66664V6.66664Z" fill="#4A5568"/>
<path d="M22 3.99998V9.33331C22 9.86375 21.7893 10.3725 21.4142 10.7475C21.0391 11.1226 20.5304 11.3333 20 11.3333H14.6667C14.1362 11.3333 13.6275 11.1226 13.2525 10.7475C12.8774 10.3725 12.6667 9.86375 12.6667 9.33331V3.99998C12.6667 3.46955 12.8774 2.96084 13.2525 2.58577C13.6275 2.21069 14.1362 1.99998 14.6667 1.99998H20C20.5304 1.99998 21.0391 2.21069 21.4142 2.58577C21.7893 2.96084 22 3.46955 22 3.99998V3.99998ZM14.6667 3.33331C14.4899 3.33331 14.3203 3.40355 14.1953 3.52858C14.0702 3.6536 14 3.82317 14 3.99998V9.33331C14 9.51012 14.0702 9.67969 14.1953 9.80472C14.3203 9.92974 14.4899 9.99998 14.6667 9.99998H20C20.1768 9.99998 20.3464 9.92974 20.4714 9.80472C20.5964 9.67969 20.6667 9.51012 20.6667 9.33331V3.99998C20.6667 3.82317 20.5964 3.6536 20.4714 3.52858C20.3464 3.40355 20.1768 3.33331 20 3.33331L14.6667 3.33331Z" fill="#4A5568"/>
</svg>
