<svg width="91" height="91" viewBox="0 0 91 91" fill="none" xmlns="http://www.w3.org/2000/svg">
<path d="M87.2083 45.5L87.0496 41.8649L86.5747 38.2574L85.7871 34.7051L84.693 31.2349L83.3006 27.8733L81.6205 24.6458L79.6655 21.5771L77.4504 18.6904L74.9922 16.0078L72.3096 13.5496L69.4229 11.3345L66.3542 9.37952L63.1267 7.69941L59.7651 6.30699L56.2949 5.21284L52.7426 4.42531L49.1351 3.95038L45.5 3.79166L41.8649 3.95038L38.2574 4.42531L34.7051 5.21284L31.2349 6.30699L27.8733 7.69941L24.6458 9.37952L21.5771 11.3345L18.6904 13.5496L16.0077 16.0078L13.5496 18.6904L11.3345 21.5771L9.37951 24.6458L7.6994 27.8733L6.30698 31.2349L5.21283 34.7051L4.4253 38.2574L3.95037 41.8649L3.79166 45.5L3.95037 49.1351L4.4253 52.7426L5.21283 56.2949L6.30698 59.7651L7.6994 63.1267" stroke="#0C8F8F" stroke-width="4" stroke-linecap="round"/>
</svg>
