<svg width="40" height="40" viewBox="0 0 40 40" fill="none" xmlns="http://www.w3.org/2000/svg">
<path d="M23.9043 23.3448L25.6781 23.531V37.9688L20.7787 32.7371V24.414L22.2016 25.1089L23.9043 23.3448ZM16.0957 23.3448L14.321 23.531V37.9688L19.2203 32.7371V24.414L17.7974 25.1089L16.0957 23.3448ZM29.5316 14.2995L30.1056 16.2975L28.3826 17.4592L28.2383 19.5351L26.2219 20.037L25.3779 21.9366L23.3107 21.7182L21.8674 23.2094L20 22.2971L18.1327 23.2094L16.6893 21.7133L14.6221 21.9316L13.7781 20.0322L11.7617 19.5351L11.6174 17.4621L9.88946 16.2965L10.4635 14.2986L9.24524 12.6155L10.4674 10.9342L9.88946 8.94023L11.6135 7.77852L11.7578 5.70547L13.7781 5.20844L14.6221 3.30898L16.6893 3.52727L18.1327 2.03125L20 2.94352L21.8674 2.03125L23.3107 3.52727L25.3779 3.30898L26.2219 5.20844L28.2383 5.71039L28.3826 7.78336L30.1056 8.94508L29.5316 10.943L30.7548 12.6155L29.5316 14.2995ZM25.6868 12.6155C25.6868 11.4992 25.3558 10.408 24.7356 9.47988C24.1155 8.55175 23.234 7.82835 22.2027 7.40118C21.1714 6.97401 20.0366 6.86224 18.9418 7.08001C17.847 7.29778 16.8414 7.83531 16.0521 8.62462C15.2627 9.41394 14.7252 10.4196 14.5074 11.5144C14.2897 12.6092 14.4014 13.744 14.8286 14.7753C15.2558 15.8066 15.9792 16.688 16.9073 17.3082C17.8354 17.9284 18.9266 18.2594 20.0429 18.2594C21.539 18.257 22.9732 17.6617 24.0312 16.6037C25.0891 15.5458 25.6845 14.1116 25.6868 12.6155ZM20.0429 8.53086C19.2351 8.53086 18.4454 8.77041 17.7737 9.21922C17.102 9.66803 16.5784 10.3059 16.2693 11.0523C15.9601 11.7986 15.8792 12.6199 16.0368 13.4122C16.1944 14.2045 16.5834 14.9323 17.1547 15.5036C17.7259 16.0748 18.4537 16.4638 19.246 16.6214C20.0383 16.779 20.8596 16.6982 21.6059 16.389C22.3523 16.0799 22.9902 15.5564 23.439 14.8847C23.8878 14.213 24.1274 13.4233 24.1274 12.6155C24.1243 11.5334 23.6929 10.4966 22.9275 9.73171C22.1621 8.96684 21.125 8.53616 20.0429 8.53383V8.53086Z" fill="white"/>
</svg>
