<svg width="391" height="103" viewBox="0 0 391 103" fill="none" xmlns="http://www.w3.org/2000/svg">
<path d="M129.812 22C73.9903 22 0 22.4859 0 22.4859V103H391V22.4859C391 22.4859 315.937 22 257.539 22C229.387 22 222.609 56.9217 195.5 56.9217C168.391 56.9217 159.528 22 129.812 22Z" fill="white"/>
<path d="M114.693 75.3526V73.4125C114.693 72.3834 114.254 71.3965 113.472 70.6688C112.69 69.9412 111.629 69.5323 110.523 69.5323H102.181C101.075 69.5323 100.014 69.9412 99.2322 70.6688C98.4501 71.3965 98.0107 72.3834 98.0107 73.4125V75.3526" stroke="#A0AEC0" stroke-width="1.5" stroke-linecap="round" stroke-linejoin="round"/>
<path d="M106.352 65.6522C108.655 65.6522 110.523 63.915 110.523 61.772C110.523 59.6291 108.655 57.8918 106.352 57.8918C104.049 57.8918 102.181 59.6291 102.181 61.772C102.181 63.915 104.049 65.6522 106.352 65.6522Z" stroke="#A0AEC0" stroke-width="1.5" stroke-linecap="round" stroke-linejoin="round"/>
<path d="M342.697 54.625C343.052 54.625 343.369 54.8459 343.489 55.1765L344.341 57.5383C344.646 57.6139 344.909 57.6912 345.13 57.77C345.371 57.8561 345.685 57.9889 346.071 58.1683L348.055 57.1183C348.217 57.0321 348.403 57.001 348.584 57.0295C348.765 57.058 348.932 57.1447 349.059 57.2764L350.805 59.0807C351.036 59.3208 351.101 59.672 350.971 59.9786L350.041 62.1593C350.194 62.4425 350.318 62.6855 350.412 62.8882C350.514 63.1079 350.639 63.4136 350.789 63.8054L352.958 64.7347C353.283 64.8735 353.485 65.1993 353.463 65.5481L353.304 68.0523C353.293 68.215 353.235 68.3709 353.136 68.5007C353.037 68.6305 352.903 68.7285 352.749 68.7825L350.695 69.5126C350.636 69.7958 350.574 70.0396 350.509 70.2439C350.403 70.5607 350.283 70.8724 350.149 71.178L351.181 73.459C351.254 73.6191 351.274 73.7987 351.238 73.971C351.201 74.1434 351.11 74.2994 350.978 74.416L349.016 76.1683C348.887 76.2837 348.726 76.3567 348.554 76.3774C348.382 76.3981 348.208 76.3656 348.055 76.2842L346.033 75.2125C345.717 75.3807 345.39 75.5287 345.055 75.6554L344.172 75.9861L343.387 78.1584C343.329 78.3171 343.224 78.4546 343.086 78.5529C342.948 78.6512 342.784 78.7059 342.615 78.7099L340.322 78.7618C340.148 78.7659 339.977 78.7162 339.833 78.6197C339.688 78.5232 339.577 78.3844 339.515 78.2224L338.59 75.7761C338.275 75.6681 337.962 75.5514 337.654 75.4261C337.401 75.3168 337.152 75.1989 336.908 75.0725L334.615 76.0525C334.464 76.1172 334.297 76.1366 334.135 76.108C333.973 76.0795 333.823 76.0044 333.704 75.892L332.007 74.3001C331.88 74.1825 331.794 74.0277 331.76 73.858C331.726 73.6883 331.747 73.5123 331.82 73.3552L332.806 71.207C332.675 70.9523 332.553 70.6931 332.441 70.4298C332.311 70.1074 332.19 69.781 332.079 69.4511L329.919 68.7933C329.743 68.7403 329.59 68.6307 329.483 68.4816C329.376 68.3326 329.322 68.1524 329.328 67.9691L329.412 65.6507C329.418 65.4995 329.466 65.3529 329.549 65.2266C329.632 65.1003 329.749 64.9991 329.885 64.9338L332.152 63.8453C332.256 63.4607 332.349 63.1598 332.429 62.9426C332.543 62.6508 332.669 62.3641 332.808 62.0833L331.826 60.0075C331.751 59.85 331.728 59.6726 331.76 59.5012C331.793 59.3297 331.879 59.1731 332.007 59.0541L333.701 57.4538C333.82 57.3415 333.968 57.266 334.129 57.2365C334.29 57.2069 334.455 57.2246 334.606 57.2873L336.897 58.2335C337.15 58.0653 337.38 57.9269 337.587 57.8183C337.834 57.688 338.166 57.5488 338.582 57.4007L339.378 55.1789C339.438 55.0167 339.545 54.8767 339.687 54.7776C339.829 54.6786 339.997 54.6253 340.17 54.625H342.697ZM342.106 56.2868H340.762L340.032 58.3312C339.989 58.4501 339.919 58.5577 339.829 58.6461C339.738 58.7344 339.628 58.8013 339.509 58.8417C338.982 59.0167 338.602 59.1676 338.38 59.2846C338.144 59.4093 337.846 59.5984 337.487 59.8518C337.37 59.9342 337.235 59.9856 337.092 60.0012C336.95 60.0168 336.807 59.9962 336.675 59.9411L334.466 59.03L333.606 59.8434L334.503 61.7381C334.556 61.8509 334.583 61.9744 334.582 62.0992C334.581 62.2241 334.551 62.347 334.495 62.4586C334.254 62.9426 334.091 63.2998 334.009 63.5194C333.883 63.8849 333.774 64.2562 333.683 64.6321C333.653 64.7497 333.597 64.8593 333.52 64.9531C333.443 65.0469 333.346 65.1227 333.237 65.1752L331.076 66.2119L331.033 67.3946L332.988 67.9884C333.247 68.0668 333.453 68.2659 333.538 68.5218C333.732 69.1027 333.885 69.5275 333.997 69.7962C334.144 70.1362 334.307 70.4692 334.484 70.7943C334.545 70.9061 334.578 71.0303 334.582 71.1572C334.586 71.2841 334.56 71.4102 334.507 71.5256L333.601 73.5024L334.459 74.3086L336.61 73.389C336.725 73.3392 336.851 73.316 336.977 73.321C337.103 73.326 337.226 73.3591 337.337 73.4179C337.78 73.6497 338.105 73.8098 338.314 73.8983C338.525 73.9864 338.929 74.1336 339.516 74.3339C339.632 74.3742 339.738 74.4393 339.826 74.5248C339.915 74.6103 339.983 74.714 340.027 74.8287L340.882 77.0867L341.999 77.0626L342.72 75.0665C342.762 74.9529 342.827 74.8496 342.913 74.7636C342.998 74.6776 343.1 74.6109 343.214 74.5681L344.465 74.0998C344.782 73.9831 345.165 73.7981 345.613 73.5447C345.737 73.4747 345.876 73.4372 346.018 73.4355C346.16 73.4338 346.301 73.468 346.426 73.535L348.329 74.5427L349.4 73.5881L348.463 71.5208C348.415 71.4147 348.39 71.2995 348.39 71.183C348.39 71.0665 348.414 70.9512 348.462 70.845C348.682 70.3538 348.83 69.9833 348.905 69.7467C348.98 69.5134 349.054 69.1815 349.128 68.7511C349.154 68.6051 349.217 68.4686 349.313 68.3555C349.409 68.2425 349.533 68.157 349.673 68.1078L351.661 67.4018L351.748 66.026L349.793 65.1885C349.689 65.1437 349.596 65.0785 349.518 64.9969C349.439 64.9152 349.378 64.8187 349.338 64.713C349.199 64.3282 349.047 63.9482 348.882 63.5737C348.726 63.2476 348.557 62.9279 348.375 62.6155C348.312 62.5052 348.275 62.3817 348.268 62.2548C348.261 62.1279 348.283 62.001 348.333 61.8842L349.208 59.8325L348.286 58.8791L346.49 59.8301C346.373 59.8926 346.243 59.9265 346.11 59.9293C345.977 59.932 345.846 59.9034 345.726 59.8458C345.345 59.6558 344.955 59.4842 344.558 59.3317C344.219 59.2174 343.874 59.1247 343.524 59.0541C343.385 59.024 343.256 58.9595 343.149 58.8665C343.042 58.7735 342.96 58.655 342.911 58.5219L342.106 56.2868ZM341.425 61.4328C344.364 61.4328 346.747 63.7898 346.747 66.6958C346.747 69.6019 344.364 71.9577 341.425 71.9577C338.486 71.9577 336.103 69.6019 336.103 66.6958C336.103 63.7898 338.485 61.434 341.425 61.434M341.425 63.097C339.413 63.097 337.783 64.7082 337.783 66.697C337.783 68.6859 339.413 70.2983 341.425 70.2983C343.437 70.2983 345.066 68.6859 345.066 66.697C345.066 64.7082 343.437 63.097 341.425 63.097Z" fill="#A0AEC0"/>
<path fill-rule="evenodd" clip-rule="evenodd" d="M283.929 55.4015C284.529 54.2254 286.507 53.4984 288.04 54.4127C290.596 55.9366 293.8 58.1781 296.379 60.7408C298.935 63.2802 301 66.2616 301 69.2453C301 71.9126 299.945 73.8948 298.418 75.3152C296.904 76.7215 294.981 77.5265 293.322 77.9325C292.95 78.0288 292.546 78.0219 292.18 77.913C291.813 77.8042 291.506 77.5999 291.309 77.3346C290.952 76.8658 290.951 76.2411 291.398 75.7397C292.671 74.3066 294.017 72.2453 294.017 70.4086C294.017 69.4966 293.515 68.4182 292.705 67.3108C292.096 66.4942 291.398 65.7198 290.621 64.996C290.471 66.6268 290.018 68.6776 288.612 70.3737C288.464 70.5558 288.262 70.7076 288.023 70.8161C287.785 70.9246 287.516 70.9867 287.241 70.9973C286.965 71.0079 286.69 70.9667 286.439 70.877C286.188 70.7873 285.969 70.6518 285.798 70.4818C285.562 70.248 285.329 69.991 285.115 69.756L285.078 69.7141L284.743 69.35C283.724 70.1445 282.775 71.0949 282.775 72.1534C282.775 73.0887 283.371 74.3659 284.076 75.4501C284.458 76.0352 284.299 76.6843 283.839 77.11C283.351 77.5614 282.463 77.794 281.62 77.4125C278.732 76.1027 275 73.3051 275 69.2453C275 68.1437 275.477 67.0049 276.144 65.8917C276.817 64.7715 277.728 63.6035 278.685 62.4368C279.017 62.0335 279.352 61.6303 279.687 61.227C281.329 59.2576 282.956 57.3057 283.929 55.4015ZM286.363 55.7714C286.281 55.795 286.206 55.8318 286.143 55.8795C286.08 55.9272 286.031 55.9847 285.999 56.0482C284.935 58.1305 283.157 60.2615 281.515 62.2286C281.188 62.6202 280.87 63.0041 280.56 63.3802C279.609 64.5376 278.766 65.6241 278.162 66.6327C277.552 67.6493 277.229 68.5171 277.229 69.2453C277.229 71.9138 279.319 73.9867 281.512 75.2686C280.984 74.2915 280.546 73.162 280.546 72.1534C280.546 70.141 282.478 68.6206 283.556 67.8203C284.255 67.3027 285.461 67.2562 286.165 67.9355C286.418 68.1809 286.667 68.4543 286.893 68.7032L286.92 68.7323L287.106 68.9359C288.101 67.4539 288.377 65.6462 288.447 64.1573C288.477 63.5454 288.961 63.0603 289.597 62.8579C289.939 62.7478 290.317 62.7238 290.677 62.7893C291.038 62.8547 291.363 63.0064 291.609 63.2232C292.6 64.0805 293.739 65.2147 294.638 66.443C295.527 67.6563 296.246 69.0511 296.246 70.4086C296.246 72.3779 295.105 74.3752 293.952 75.863C295.01 75.4619 295.95 74.8927 296.712 74.1915C297.881 73.105 298.771 71.5276 298.771 69.2453C298.771 66.8525 297.082 64.2585 294.628 61.8203C292.199 59.4042 289.144 57.2638 286.69 55.8005C286.609 55.7528 286.504 55.7342 286.363 55.7714Z" fill="#A0AEC0"/>
<path d="M47.75 77.7083H53.1342V69.1275H59.8658V77.7083H65.25V64.5833L56.5 57.9654L47.75 64.5833V77.7083ZM46.2917 79.1666V63.8541L56.5 56.1425L66.7083 63.8541V79.1666H58.4075V70.5858H54.5925V79.1666H46.2917Z" fill="#0C8F8F"/>
<path d="M220 24C220 37.2548 209.255 48 196 48C182.745 48 172 37.2548 172 24C172 10.7452 182.745 0 196 0C209.255 0 220 10.7452 220 24Z" fill="#0C8F8F"/>
<path d="M196 17V31" stroke="white" stroke-width="2" stroke-linecap="round" stroke-linejoin="round"/>
<path d="M189 24H203" stroke="white" stroke-width="2" stroke-linecap="round" stroke-linejoin="round"/>
</svg>
