<svg width="50" height="50" viewBox="0 0 50 50" fill="none" xmlns="http://www.w3.org/2000/svg">
<circle cx="25" cy="25" r="25" fill="#FFBD39"/>
<path d="M37.1709 30.9223C36.3154 30.0661 35.3157 29.3673 34.2178 28.8579C35.7661 27.6035 36.7539 25.6894 36.7539 23.5429C36.7539 19.7558 33.5957 16.6489 29.8086 16.707C26.0796 16.7651 23.0752 19.8037 23.0752 23.5429C23.0752 25.6894 24.0664 27.6035 25.6114 28.8579C24.5132 29.3669 23.5135 30.0658 22.6582 30.9223C20.792 32.7919 19.7324 35.2597 19.6641 37.8915C19.6632 37.928 19.6696 37.9643 19.6829 37.9983C19.6962 38.0323 19.7162 38.0632 19.7417 38.0893C19.7672 38.1155 19.7977 38.1362 19.8313 38.1504C19.8649 38.1645 19.901 38.1718 19.9375 38.1718H21.8516C21.9986 38.1718 22.1216 38.0556 22.125 37.9086C22.19 35.9262 22.9932 34.0703 24.4048 32.6621C25.1272 31.9359 25.9864 31.3601 26.9327 30.9682C27.879 30.5763 28.8937 30.376 29.918 30.3789C31.9995 30.3789 33.958 31.1889 35.4312 32.6621C36.8394 34.0703 37.6426 35.9262 37.711 37.9086C37.7144 38.0556 37.8374 38.1718 37.9844 38.1718H39.8985C39.935 38.1718 39.9711 38.1645 40.0047 38.1504C40.0383 38.1362 40.0688 38.1155 40.0943 38.0893C40.1198 38.0632 40.1397 38.0323 40.1531 37.9983C40.1664 37.9643 40.1728 37.928 40.1719 37.8915C40.1035 35.2597 39.044 32.7919 37.1709 30.9223ZM29.918 27.9179C28.749 27.9179 27.6485 27.4633 26.8247 26.6362C26.4113 26.226 26.0848 25.7368 25.8646 25.1978C25.6444 24.6587 25.535 24.0808 25.543 23.4985C25.5532 22.3774 26.001 21.2939 26.7837 20.4907C27.604 19.6499 28.7012 19.1816 29.8736 19.1679C31.0323 19.1577 32.1568 19.6088 32.9839 20.4189C33.8316 21.2495 34.2964 22.3603 34.2964 23.5429C34.2964 24.7119 33.8418 25.809 33.0147 26.6362C32.6089 27.0439 32.1262 27.3672 31.5947 27.5872C31.0632 27.8072 30.4933 27.9196 29.918 27.9179ZM21.356 24.4453C21.3252 24.1479 21.3081 23.8471 21.3081 23.5429C21.3081 22.9995 21.3594 22.4697 21.4551 21.9536C21.479 21.8305 21.4141 21.704 21.3013 21.6528C20.8365 21.4443 20.4092 21.1572 20.0401 20.7949C19.6051 20.3731 19.2628 19.8653 19.0351 19.3039C18.8073 18.7425 18.6991 18.1397 18.7173 17.5341C18.7481 16.437 19.189 15.3945 19.958 14.6083C20.8023 13.7436 21.937 13.2719 23.1436 13.2856C24.2339 13.2958 25.2866 13.7163 26.083 14.4614C26.3531 14.7143 26.5855 14.9946 26.7803 15.2954C26.8487 15.4013 26.982 15.4457 27.0982 15.4047C27.6997 15.1962 28.3355 15.0493 28.9883 14.9809C29.1797 14.9604 29.2891 14.7553 29.2036 14.5844C28.0928 12.3867 25.8233 10.8691 23.1983 10.8281C19.4077 10.77 16.2495 13.8769 16.2495 17.6606C16.2495 19.8071 17.2373 21.7211 18.7857 22.9755C17.6988 23.478 16.6973 24.1718 15.8291 25.04C13.9561 26.9096 12.8965 29.3774 12.8281 32.0126C12.8272 32.0491 12.8336 32.0854 12.847 32.1194C12.8603 32.1534 12.8803 32.1843 12.9058 32.2104C12.9313 32.2365 12.9617 32.2573 12.9953 32.2715C13.029 32.2856 13.0651 32.2929 13.1016 32.2929H15.0191C15.166 32.2929 15.2891 32.1767 15.2925 32.0297C15.3574 30.0473 16.1607 28.1914 17.5723 26.7832C18.5772 25.7783 19.8076 25.081 21.1509 24.7426C21.2842 24.7084 21.3731 24.582 21.356 24.4453Z" fill="white"/>
<circle cx="25" cy="25" r="25" fill="#FFBD39"/>
<path d="M37.1709 30.9223C36.3154 30.0661 35.3157 29.3673 34.2178 28.8579C35.7661 27.6035 36.7539 25.6894 36.7539 23.5429C36.7539 19.7558 33.5957 16.6489 29.8086 16.707C26.0796 16.7651 23.0752 19.8037 23.0752 23.5429C23.0752 25.6894 24.0664 27.6035 25.6114 28.8579C24.5132 29.3669 23.5135 30.0658 22.6582 30.9223C20.792 32.7919 19.7324 35.2597 19.6641 37.8915C19.6632 37.928 19.6696 37.9643 19.6829 37.9983C19.6962 38.0323 19.7162 38.0632 19.7417 38.0893C19.7672 38.1155 19.7977 38.1362 19.8313 38.1504C19.8649 38.1645 19.901 38.1718 19.9375 38.1718H21.8516C21.9986 38.1718 22.1216 38.0556 22.125 37.9086C22.19 35.9262 22.9932 34.0703 24.4048 32.6621C25.1272 31.9359 25.9864 31.3601 26.9327 30.9682C27.879 30.5763 28.8937 30.376 29.918 30.3789C31.9995 30.3789 33.958 31.1889 35.4312 32.6621C36.8394 34.0703 37.6426 35.9262 37.711 37.9086C37.7144 38.0556 37.8374 38.1718 37.9844 38.1718H39.8985C39.935 38.1718 39.9711 38.1645 40.0047 38.1504C40.0383 38.1362 40.0688 38.1155 40.0943 38.0893C40.1198 38.0632 40.1397 38.0323 40.1531 37.9983C40.1664 37.9643 40.1728 37.928 40.1719 37.8915C40.1035 35.2597 39.044 32.7919 37.1709 30.9223ZM29.918 27.9179C28.749 27.9179 27.6485 27.4633 26.8247 26.6362C26.4113 26.226 26.0848 25.7368 25.8646 25.1978C25.6444 24.6587 25.535 24.0808 25.543 23.4985C25.5532 22.3774 26.001 21.2939 26.7837 20.4907C27.604 19.6499 28.7012 19.1816 29.8736 19.1679C31.0323 19.1577 32.1568 19.6088 32.9839 20.4189C33.8316 21.2495 34.2964 22.3603 34.2964 23.5429C34.2964 24.7119 33.8418 25.809 33.0147 26.6362C32.6089 27.0439 32.1262 27.3672 31.5947 27.5872C31.0632 27.8072 30.4933 27.9196 29.918 27.9179ZM21.356 24.4453C21.3252 24.1479 21.3081 23.8471 21.3081 23.5429C21.3081 22.9995 21.3594 22.4697 21.4551 21.9536C21.479 21.8305 21.4141 21.704 21.3013 21.6528C20.8365 21.4443 20.4092 21.1572 20.0401 20.7949C19.6051 20.3731 19.2628 19.8653 19.0351 19.3039C18.8073 18.7425 18.6991 18.1397 18.7173 17.5341C18.7481 16.437 19.189 15.3945 19.958 14.6083C20.8023 13.7436 21.937 13.2719 23.1436 13.2856C24.2339 13.2958 25.2866 13.7163 26.083 14.4614C26.3531 14.7143 26.5855 14.9946 26.7803 15.2954C26.8487 15.4013 26.982 15.4457 27.0982 15.4047C27.6997 15.1962 28.3355 15.0493 28.9883 14.9809C29.1797 14.9604 29.2891 14.7553 29.2036 14.5844C28.0928 12.3867 25.8233 10.8691 23.1983 10.8281C19.4077 10.77 16.2495 13.8769 16.2495 17.6606C16.2495 19.8071 17.2373 21.7211 18.7857 22.9755C17.6988 23.478 16.6973 24.1718 15.8291 25.04C13.9561 26.9096 12.8965 29.3774 12.8281 32.0126C12.8272 32.0491 12.8336 32.0854 12.847 32.1194C12.8603 32.1534 12.8803 32.1843 12.9058 32.2104C12.9313 32.2365 12.9617 32.2573 12.9953 32.2715C13.029 32.2856 13.0651 32.2929 13.1016 32.2929H15.0191C15.166 32.2929 15.2891 32.1767 15.2925 32.0297C15.3574 30.0473 16.1607 28.1914 17.5723 26.7832C18.5772 25.7783 19.8076 25.081 21.1509 24.7426C21.2842 24.7084 21.3731 24.582 21.356 24.4453Z" fill="white"/>
</svg>
