<svg width="375" height="107" viewBox="0 0 375 107" fill="none" xmlns="http://www.w3.org/2000/svg">
<path d="M124.5 23C70.9626 23 0 23.5009 0 23.5009V106.501H375V23.5009C375 23.5009 303.009 23 247 23C220 23 213.5 59 187.5 59C161.5 59 153 23 124.5 23Z" fill="white"/>
<path d="M105 74V72C105 70.9391 104.579 69.9217 103.828 69.1716C103.078 68.4214 102.061 68 101 68H93C91.9391 68 90.9217 68.4214 90.1716 69.1716C89.4214 69.9217 89 70.9391 89 72V74" stroke="#A0AEC0" stroke-width="1.5" stroke-linecap="round" stroke-linejoin="round"/>
<path d="M97 64C99.2091 64 101 62.2091 101 60C101 57.7909 99.2091 56 97 56C94.7909 56 93 57.7909 93 60C93 62.2091 94.7909 64 97 64Z" stroke="#A0AEC0" stroke-width="1.5" stroke-linecap="round" stroke-linejoin="round"/>
<path d="M323.294 53C323.647 53 323.962 53.2196 324.081 53.5484L324.928 55.8968C325.232 55.972 325.493 56.0488 325.713 56.1272C325.953 56.2128 326.265 56.3448 326.649 56.5232L328.622 55.4792C328.783 55.3935 328.967 55.3625 329.148 55.3908C329.328 55.4192 329.494 55.5054 329.62 55.6364L331.356 57.4304C331.586 57.6692 331.651 58.0184 331.521 58.3232L330.596 60.4916C330.749 60.7732 330.872 61.0148 330.966 61.2164C331.066 61.4348 331.191 61.7388 331.34 62.1284L333.496 63.0524C333.82 63.1904 334.021 63.5144 333.999 63.8612L333.841 66.3512C333.83 66.513 333.772 66.668 333.674 66.7971C333.576 66.9261 333.442 67.0235 333.289 67.0772L331.246 67.8032C331.188 68.0848 331.126 68.3272 331.062 68.5304C330.957 68.8453 330.837 69.1553 330.704 69.4592L331.73 71.7272C331.803 71.8864 331.823 72.065 331.787 72.2363C331.75 72.4077 331.66 72.5628 331.528 72.6788L329.577 74.4212C329.449 74.5359 329.289 74.6085 329.118 74.6291C328.947 74.6497 328.774 74.6173 328.622 74.5364L326.611 73.4708C326.297 73.6381 325.972 73.7852 325.639 73.9112L324.76 74.24L323.98 76.4C323.922 76.5578 323.818 76.6945 323.681 76.7922C323.544 76.89 323.381 76.9444 323.212 76.9484L320.932 77C320.76 77.004 320.59 76.9547 320.446 76.8587C320.303 76.7627 320.192 76.6247 320.13 76.4636L319.21 74.0312C318.897 73.9238 318.586 73.8078 318.279 73.6832C318.028 73.5745 317.781 73.4572 317.538 73.3316L315.258 74.306C315.107 74.3704 314.942 74.3896 314.781 74.3613C314.62 74.3329 314.471 74.2582 314.352 74.1464L312.664 72.5636C312.538 72.4466 312.452 72.2927 312.419 72.124C312.386 71.9552 312.406 71.7802 312.478 71.624L313.459 69.488C313.329 69.2348 313.208 68.977 313.096 68.7152C312.966 68.3946 312.846 68.07 312.736 67.742L310.588 67.088C310.414 67.0352 310.262 66.9263 310.155 66.7781C310.049 66.6299 309.994 66.4507 310 66.2684L310.084 63.9632C310.091 63.8129 310.138 63.6671 310.221 63.5415C310.304 63.4159 310.419 63.3153 310.555 63.2504L312.808 62.168C312.912 61.7856 313.004 61.4864 313.084 61.2704C313.198 60.9803 313.323 60.6952 313.461 60.416L312.484 58.352C312.41 58.1954 312.387 58.019 312.419 57.8485C312.452 57.6781 312.538 57.5223 312.664 57.404L314.349 55.8128C314.467 55.7011 314.615 55.6261 314.775 55.5967C314.934 55.5673 315.099 55.5848 315.249 55.6472L317.527 56.588C317.778 56.4208 318.007 56.2832 318.213 56.1752C318.459 56.0456 318.788 55.9072 319.202 55.76L319.994 53.5508C320.053 53.3895 320.16 53.2502 320.301 53.1517C320.442 53.0533 320.609 53.0003 320.781 53H323.294ZM322.706 54.6524H321.37L320.644 56.6852C320.601 56.8034 320.532 56.9104 320.442 56.9983C320.352 57.0861 320.243 57.1526 320.124 57.1928C319.6 57.3668 319.222 57.5168 319.002 57.6332C318.766 57.7572 318.47 57.9452 318.114 58.1972C317.998 58.2791 317.863 58.3302 317.721 58.3457C317.58 58.3613 317.437 58.3407 317.306 58.286L315.11 57.38L314.254 58.1888L315.146 60.0728C315.199 60.1849 315.227 60.3077 315.225 60.4318C315.224 60.556 315.194 60.6782 315.139 60.7892C314.899 61.2704 314.737 61.6256 314.655 61.844C314.53 62.2074 314.421 62.5766 314.331 62.9504C314.301 63.0673 314.246 63.1763 314.169 63.2696C314.092 63.3628 313.996 63.4382 313.887 63.4904L311.739 64.5212L311.696 65.6972L313.64 66.2876C313.898 66.3656 314.102 66.5636 314.187 66.818C314.38 67.3956 314.532 67.818 314.643 68.0852C314.79 68.4233 314.951 68.7544 315.128 69.0776C315.188 69.1888 315.221 69.3123 315.225 69.4385C315.229 69.5647 315.204 69.6901 315.151 69.8048L314.25 71.7704L315.103 72.572L317.241 71.6576C317.356 71.6081 317.481 71.585 317.606 71.59C317.732 71.595 317.854 71.6279 317.965 71.6864C318.405 71.9168 318.728 72.076 318.936 72.164C319.146 72.2516 319.548 72.398 320.131 72.5972C320.246 72.6372 320.352 72.702 320.44 72.787C320.527 72.872 320.596 72.9751 320.64 73.0892L321.489 75.3344L322.6 75.3104L323.317 73.3256C323.358 73.2127 323.424 73.11 323.508 73.0245C323.593 72.9389 323.695 72.8726 323.808 72.83L325.052 72.3644C325.367 72.2484 325.748 72.0644 326.193 71.8124C326.316 71.7429 326.455 71.7055 326.596 71.7038C326.738 71.7022 326.877 71.7362 327.002 71.8028L328.894 72.8048L329.959 71.8556L329.028 69.8C328.98 69.6945 328.955 69.58 328.955 69.4641C328.954 69.3483 328.979 69.2337 329.026 69.128C329.245 68.6396 329.392 68.2712 329.467 68.036C329.541 67.804 329.615 67.474 329.689 67.046C329.714 66.9009 329.777 66.7651 329.873 66.6527C329.968 66.5403 330.091 66.4552 330.23 66.4064L332.208 65.7044L332.294 64.3364L330.35 63.5036C330.247 63.4591 330.154 63.3943 330.076 63.3131C329.998 63.2319 329.938 63.1359 329.898 63.0308C329.759 62.6482 329.608 62.2704 329.444 61.898C329.289 61.5737 329.121 61.2558 328.94 60.9452C328.877 60.8355 328.841 60.7127 328.833 60.5865C328.826 60.4603 328.848 60.3342 328.898 60.218L329.768 58.178L328.851 57.23L327.066 58.1756C326.949 58.2377 326.82 58.2715 326.688 58.2742C326.556 58.2769 326.425 58.2485 326.306 58.1912C325.927 58.0023 325.54 57.8317 325.144 57.68C324.808 57.5663 324.464 57.4742 324.116 57.404C323.978 57.3741 323.85 57.3099 323.744 57.2174C323.637 57.1249 323.555 57.0071 323.506 56.8748L322.706 54.6524ZM322.029 59.7692C324.951 59.7692 327.321 62.1128 327.321 65.0024C327.321 67.892 324.951 70.2344 322.029 70.2344C319.107 70.2344 316.737 67.892 316.737 65.0024C316.737 62.1128 319.106 59.7704 322.029 59.7704M322.029 61.424C320.029 61.424 318.408 63.026 318.408 65.0036C318.408 66.9812 320.029 68.5844 322.029 68.5844C324.03 68.5844 325.65 66.9812 325.65 65.0036C325.65 63.026 324.03 61.424 322.029 61.424Z" fill="#A0AEC0"/>
<path d="M211 24C211 37.2548 200.255 48 187 48C173.745 48 163 37.2548 163 24C163 10.7452 173.745 0 187 0C200.255 0 211 10.7452 211 24Z" fill="#0C8F8F"/>
<path d="M187 17V31" stroke="white" stroke-width="2" stroke-linecap="round" stroke-linejoin="round"/>
<path d="M180 24H194" stroke="white" stroke-width="2" stroke-linecap="round" stroke-linejoin="round"/>
<path fill-rule="evenodd" clip-rule="evenodd" d="M288.332 83.4223C288.908 82.1999 290.807 81.4442 292.279 82.3945C294.732 83.9785 297.808 86.3084 300.284 88.972C302.737 91.6115 304.72 94.7104 304.72 97.8117C304.72 100.584 303.707 102.644 302.241 104.121C300.788 105.583 298.942 106.419 297.349 106.841C296.992 106.941 296.605 106.934 296.253 106.821C295.901 106.708 295.605 106.496 295.416 106.22C295.074 105.732 295.073 105.083 295.502 104.562C296.724 103.072 298.016 100.93 298.016 99.0208C298.016 98.0729 297.534 96.952 296.757 95.801C296.172 94.9522 295.502 94.1472 294.756 93.3949C294.612 95.09 294.177 97.2217 292.828 98.9845C292.685 99.1739 292.491 99.3316 292.262 99.4443C292.033 99.5571 291.776 99.6217 291.511 99.6328C291.247 99.6438 290.983 99.6009 290.742 99.5076C290.501 99.4144 290.29 99.2736 290.126 99.097C289.899 98.8539 289.676 98.5867 289.47 98.3425L289.435 98.299L289.114 97.9205C288.135 98.7463 287.224 99.7341 287.224 100.834C287.224 101.807 287.796 103.134 288.473 104.261C288.84 104.869 288.687 105.544 288.245 105.986C287.777 106.455 286.924 106.697 286.116 106.301C283.343 104.939 279.76 102.031 279.76 97.8117C279.76 96.6667 280.218 95.483 280.858 94.3259C281.504 93.1615 282.379 91.9476 283.297 90.7349C283.617 90.3157 283.938 89.8966 284.26 89.4774C285.836 87.4304 287.398 85.4016 288.332 83.4223ZM290.668 83.8068C290.589 83.8313 290.518 83.8696 290.457 83.9192C290.397 83.9688 290.35 84.0285 290.319 84.0945C289.298 86.2588 287.59 88.4739 286.014 90.5184C285.7 90.9255 285.395 91.3245 285.097 91.7154C284.184 92.9185 283.376 94.0478 282.795 95.0961C282.21 96.1528 281.899 97.0548 281.899 97.8117C281.899 100.585 283.906 102.74 286.011 104.072C285.505 103.057 285.084 101.883 285.084 100.834C285.084 98.7427 286.939 97.1624 287.974 96.3306C288.644 95.7925 289.802 95.7441 290.479 96.4503C290.721 96.7054 290.961 96.9895 291.177 97.2483L291.203 97.2785L291.381 97.4901C292.337 95.9497 292.602 94.0708 292.669 92.5231C292.698 91.8871 293.163 91.3829 293.773 91.1726C294.102 91.0581 294.464 91.0332 294.81 91.1012C295.156 91.1693 295.469 91.3269 295.704 91.5522C296.656 92.4433 297.75 93.6222 298.613 94.899C299.466 96.1601 300.156 97.6098 300.156 99.0208C300.156 101.068 299.061 103.144 297.954 104.69C298.97 104.273 299.872 103.682 300.604 102.953C301.726 101.823 302.581 100.184 302.581 97.8117C302.581 95.3246 300.959 92.6283 298.603 90.094C296.271 87.5828 293.338 85.358 290.982 83.837C290.905 83.7874 290.804 83.7681 290.668 83.8068Z" fill="#A0AEC0"/>
<path d="M40.75 75.7083H46.1342V67.1275H52.8658V75.7083H58.25V62.5833L49.5 55.9654L40.75 62.5833V75.7083ZM39.2917 77.1666V61.8541L49.5 54.1425L59.7083 61.8541V77.1666H51.4075V68.5858H47.5925V77.1666H39.2917Z" fill="#0C8F8F"/>
</svg>
