<svg width="85" height="84" viewBox="0 0 85 84" fill="none" xmlns="http://www.w3.org/2000/svg">
<mask id="mask0_1171_1206" style="mask-type:luminance" maskUnits="userSpaceOnUse" x="0" y="0" width="85" height="84">
<path d="M84.04 41.6897C84.04 18.7277 65.415 0.113312 42.44 0.113312C19.4649 0.113312 0.839996 18.7277 0.839996 41.6897C0.839996 64.6517 19.4649 83.266 42.44 83.266C65.415 83.266 84.04 64.6517 84.04 41.6897Z" fill="white"/>
</mask>
<g mask="url(#mask0_1171_1206)">
<path d="M84.04 0.113312H0.84V83.266H84.04V0.113312Z" fill="#0C8F8F"/>
<path d="M103.567 78.6506C112.996 52.7579 99.6381 24.128 73.7307 14.7039C47.8233 5.27969 19.1771 18.6301 9.74762 44.5227C0.318106 70.4154 13.6761 99.0453 39.5834 108.469C65.4908 117.894 94.137 104.543 103.567 78.6506Z" fill="#FFAD08"/>
<path d="M26.2622 43.9995C30.8844 46.3092 35.5067 46.3092 40.1289 43.9995" stroke="black" stroke-width="2.22222" stroke-linecap="round"/>
<path d="M27.4178 30.1407C27.4178 28.865 26.6417 27.8309 25.6844 27.8309C24.7272 27.8309 23.9511 28.865 23.9511 30.1407C23.9511 31.4163 24.7272 32.4505 25.6844 32.4505C26.6417 32.4505 27.4178 31.4163 27.4178 30.1407Z" fill="black"/>
<path d="M41.2844 30.1407C41.2844 28.865 40.5084 27.8309 39.5511 27.8309C38.5938 27.8309 37.8178 28.865 37.8178 30.1407C37.8178 31.4163 38.5938 32.4505 39.5511 32.4505C40.5084 32.4505 41.2844 31.4163 41.2844 30.1407Z" fill="black"/>
</g>
</svg>
