<svg width="69" height="69" viewBox="0 0 69 69" fill="none" xmlns="http://www.w3.org/2000/svg">
<mask id="mask0_1211_540" style="mask-type:luminance" maskUnits="userSpaceOnUse" x="0" y="0" width="69" height="69">
<path d="M68.4 34.2685C68.4 15.6118 53.2673 0.487671 34.6 0.487671C15.9328 0.487671 0.800049 15.6118 0.800049 34.2685C0.800049 52.9251 15.9328 68.0492 34.6 68.0492C53.2673 68.0492 68.4 52.9251 68.4 34.2685Z" fill="white"/>
</mask>
<g mask="url(#mask0_1211_540)">
<path d="M68.3999 0.487671H0.799927V68.0492H68.3999V0.487671Z" fill="#0C8F8F"/>
<path d="M84.2654 64.2992C91.9269 43.2614 81.0736 19.9996 60.0238 12.3425C38.9741 4.68535 15.6991 15.5325 8.03757 36.5703C0.376093 57.6081 11.2294 80.8699 32.2792 88.527C53.3289 96.1842 76.604 85.337 84.2654 64.2992Z" fill="#FFAD08"/>
<path d="M21.4556 36.1451C25.2111 38.0219 28.9667 38.0219 32.7222 36.1451" stroke="black" stroke-width="2.22222" stroke-linecap="round"/>
<path d="M22.3945 24.8849C22.3945 23.8484 21.764 23.0082 20.9862 23.0082C20.2084 23.0082 19.5779 23.8484 19.5779 24.8849C19.5779 25.9214 20.2084 26.7616 20.9862 26.7616C21.764 26.7616 22.3945 25.9214 22.3945 24.8849Z" fill="black"/>
<path d="M33.6611 24.8849C33.6611 23.8484 33.0306 23.0082 32.2528 23.0082C31.475 23.0082 30.8445 23.8484 30.8445 24.8849C30.8445 25.9214 31.475 26.7616 32.2528 26.7616C33.0306 26.7616 33.6611 25.9214 33.6611 24.8849Z" fill="black"/>
</g>
</svg>
