<svg width="84" height="84" viewBox="0 0 84 84" fill="none" xmlns="http://www.w3.org/2000/svg">
<mask id="mask0_1171_810" style="mask-type:luminance" maskUnits="userSpaceOnUse" x="0" y="0" width="84" height="84">
<path d="M83.84 42.2808C83.84 19.3188 65.2151 0.704407 42.24 0.704407C19.265 0.704407 0.640015 19.3188 0.640015 42.2808C0.640015 65.2428 19.265 83.8571 42.24 83.8571C65.2151 83.8571 83.84 65.2428 83.84 42.2808Z" fill="white"/>
</mask>
<g mask="url(#mask0_1171_810)">
<path d="M83.84 0.704407H0.640015V83.8571H83.84V0.704407Z" fill="#0C8F8F"/>
<path d="M103.367 79.2417C112.796 53.349 99.4381 24.7191 73.5307 15.295C47.6234 5.87081 18.9771 19.2212 9.54763 45.1138C0.118113 71.0065 13.4761 99.6364 39.3834 109.061C65.2908 118.485 93.937 105.134 103.367 79.2417Z" fill="#FFAD08"/>
<path d="M26.0623 44.5906C30.6845 46.9004 35.3067 46.9004 39.9289 44.5906" stroke="black" stroke-width="2.22222" stroke-linecap="round"/>
<path d="M27.2178 30.7318C27.2178 29.4561 26.4418 28.422 25.4845 28.422C24.5272 28.422 23.7512 29.4561 23.7512 30.7318C23.7512 32.0075 24.5272 33.0416 25.4845 33.0416C26.4418 33.0416 27.2178 32.0075 27.2178 30.7318Z" fill="black"/>
<path d="M41.0845 30.7318C41.0845 29.4561 40.3084 28.422 39.3511 28.422C38.3938 28.422 37.6178 29.4561 37.6178 30.7318C37.6178 32.0075 38.3938 33.0416 39.3511 33.0416C40.3084 33.0416 41.0845 32.0075 41.0845 30.7318Z" fill="black"/>
</g>
</svg>
