<svg width="84" height="84" viewBox="0 0 84 84" fill="none" xmlns="http://www.w3.org/2000/svg">
<mask id="mask0_1160_514" style="mask-type:luminance" maskUnits="userSpaceOnUse" x="0" y="0" width="84" height="84">
<path d="M83.96 42.0788C83.96 19.1168 65.3351 0.502457 42.36 0.502457C19.385 0.502457 0.76001 19.1168 0.76001 42.0788C0.76001 65.0408 19.385 83.6552 42.36 83.6552C65.3351 83.6552 83.96 65.0408 83.96 42.0788Z" fill="white"/>
</mask>
<g mask="url(#mask0_1160_514)">
<path d="M83.96 0.502464H0.76001V83.6552H83.96V0.502464Z" fill="#0C8F8F"/>
<path d="M103.487 79.0397C112.916 53.1471 99.5582 24.5172 73.6508 15.093C47.7434 5.66885 19.0972 19.0192 9.66768 44.9119C0.238169 70.8045 13.5961 99.4344 39.5035 108.859C65.4109 118.283 94.0571 104.932 103.487 79.0397Z" fill="#FFAD08"/>
<path d="M26.1823 44.3886C30.8045 46.6984 35.4267 46.6984 40.0489 44.3886" stroke="black" stroke-width="2.22222" stroke-linecap="round"/>
<path d="M27.3378 30.5298C27.3378 29.2542 26.5617 28.22 25.6044 28.22C24.6471 28.22 23.8711 29.2542 23.8711 30.5298C23.8711 31.8055 24.6471 32.8396 25.6044 32.8396C26.5617 32.8396 27.3378 31.8055 27.3378 30.5298Z" fill="black"/>
<path d="M41.2045 30.5298C41.2045 29.2542 40.4284 28.22 39.4711 28.22C38.5138 28.22 37.7378 29.2542 37.7378 30.5298C37.7378 31.8055 38.5138 32.8396 39.4711 32.8396C40.4284 32.8396 41.2045 31.8055 41.2045 30.5298Z" fill="black"/>
</g>
</svg>
