<svg width="30" height="30" viewBox="0 0 30 30" fill="none" xmlns="http://www.w3.org/2000/svg">
<path d="M27.5 13.75H24.625C24.25 12.375 23.625 11 22.75 10L27 3.25L24.875 1.875L20.875 8.25C20.375 7.875 20 7.625 19.375 7.375L20.5 2.875L18.125 2.25L17.125 6.5C16.375 6.375 15.75 6.25 15 6.25C10.375 6.25 6.5 9.5 5.375 13.75H2.5C2.5 18.875 5.625 23.25 10 25.25V27.5H20V25.25C24.375 23.25 27.5 18.875 27.5 13.75ZM15 8.75C18.25 8.75 21 10.875 22 13.75H8C9 10.875 11.75 8.75 15 8.75Z" fill="white"/>
</svg>
