<svg width="31" height="31" viewBox="0 0 31 31" fill="none" xmlns="http://www.w3.org/2000/svg">
<path d="M27.125 12.5937H26.1114C25.868 9.94767 24.6448 7.48803 22.6817 5.69721C20.7186 3.9064 18.1572 2.91364 15.5 2.91364C12.8428 2.91364 10.2814 3.9064 8.31831 5.69721C6.35519 7.48803 5.13197 9.94767 4.88855 12.5937H3.875C3.61807 12.5937 3.37167 12.6958 3.18999 12.8775C3.00831 13.0591 2.90625 13.3055 2.90625 13.5625C2.91051 15.8663 3.54453 18.1251 4.73974 20.0947C5.93496 22.0642 7.64589 23.6695 9.6875 24.737V25.1875C9.6875 25.7013 9.89163 26.1941 10.255 26.5575C10.6183 26.9208 11.1111 27.125 11.625 27.125H19.375C19.8889 27.125 20.3817 26.9208 20.745 26.5575C21.1084 26.1941 21.3125 25.7013 21.3125 25.1875V24.737C23.3541 23.6695 25.065 22.0642 26.2603 20.0947C27.4555 18.1251 28.0895 15.8663 28.0938 13.5625C28.0938 13.3055 27.9917 13.0591 27.81 12.8775C27.6283 12.6958 27.3819 12.5937 27.125 12.5937ZM21.0073 6.80907C21.2293 6.99072 21.4421 7.18245 21.6455 7.38427C19.0667 8.29145 16.9356 10.1559 15.6938 12.5913H12.1215C12.727 10.8941 13.8417 9.42519 15.3133 8.38529C16.785 7.34538 18.5418 6.78518 20.3438 6.78122C20.5654 6.78122 20.787 6.79212 21.0073 6.80907ZM17.9364 12.5937C19.1109 10.8317 20.8878 9.55852 22.9339 9.01298C23.603 10.1012 24.0227 11.324 24.163 12.5937H17.9364ZM15.5 4.84372C16.2774 4.84443 17.0512 4.94909 17.8008 5.15493C15.9752 5.60779 14.3013 6.53388 12.9477 7.83985C11.5941 9.14582 10.6087 10.7855 10.0907 12.5937H6.83695C7.07726 10.4635 8.09309 8.49624 9.69078 7.06693C11.2885 5.63763 13.3563 4.84627 15.5 4.84372Z" fill="white"/>
</svg>
