<svg width="38" height="22" viewBox="0 0 38 22" fill="none" xmlns="http://www.w3.org/2000/svg">
<path d="M18.6815 2.2093L18.6651 2.20025L17.2218 1.39608C16.2312 0.843714 15.0494 0.575761 13.8575 0.633257C12.6656 0.690754 11.5292 1.07053 10.6225 1.71443L7.07899 4.23254C6.83149 4.40799 6.51648 4.50431 6.19083 4.50411H2.16499C1.80297 4.50411 1.45577 4.62333 1.19979 4.83554C0.9438 5.04775 0.799988 5.33557 0.799988 5.63567V14.7334C0.799988 15.3581 1.41151 15.865 2.16499 15.865H5.96515C6.15897 15.8649 6.3506 15.899 6.52727 15.9651C6.70395 16.0312 6.86163 16.1277 6.98981 16.2482L11.2468 20.2615C11.9095 20.8859 12.8256 21.2869 13.8213 21.3884C14.8171 21.4899 15.8231 21.2849 16.6485 20.8122L17.8934 20.0986L19.2293 20.4758C20.0548 20.7078 20.9481 20.7155 21.7792 20.4976C22.6103 20.2797 23.3359 19.8476 23.8503 19.2642L24.7057 18.2956L25.299 18.362C26.1207 18.4538 26.9567 18.3366 27.6964 18.026C28.436 17.7154 29.0445 17.2259 29.4413 16.6224L29.5305 16.4866H35.835C36.197 16.4866 36.5442 16.3674 36.8002 16.1552C37.0562 15.943 37.2 15.6552 37.2 15.3551V5.63718C37.2 5.33708 37.0562 5.04926 36.8002 4.83705C36.5442 4.62484 36.197 4.50562 35.835 4.50562H31.811C31.4836 4.5057 31.1671 4.40825 30.9192 4.23103L27.8452 2.02976C26.563 1.11128 24.9144 0.62108 23.2203 0.654544C21.5262 0.688009 19.9077 1.24274 18.6797 2.21081M15.6949 3.27448L16.7177 3.84479L13.1505 6.81854C12.7661 7.13905 12.4627 7.51998 12.2582 7.93898C12.0537 8.35798 11.9522 8.80662 11.9597 9.25857C11.9672 9.71052 12.0834 10.1567 12.3016 10.5709C12.5199 10.9851 12.8357 11.359 13.2306 11.6707L13.3543 11.7672C14.8285 12.9305 17.1072 13.021 18.707 11.9785L22.4907 9.51618L27.3265 13.371C27.5425 13.543 27.6843 13.7691 27.73 14.0145C27.7758 14.2599 27.7229 14.5109 27.5795 14.7289L27.534 14.7953L27.5085 14.8345L27.0444 15.5391C26.9121 15.74 26.7094 15.9029 26.4631 16.0064C26.2168 16.1098 25.9385 16.1489 25.6648 16.1185L24.2652 15.9631C24.022 15.9359 23.7745 15.9637 23.5487 16.0433C23.3229 16.123 23.1272 16.2516 22.9821 16.4157L21.6463 17.9275C21.4749 18.1219 21.2332 18.266 20.9563 18.3387C20.6794 18.4114 20.3817 18.409 20.1065 18.3318L18.1227 17.7736C17.921 17.7167 17.7059 17.6997 17.4948 17.7241C17.2836 17.7484 17.0823 17.8134 16.907 17.9139L15.0979 18.9504C14.8226 19.1082 14.4869 19.1766 14.1547 19.1427C13.8226 19.1087 13.517 18.9748 13.2961 18.7663L9.03913 14.7531C8.65454 14.391 8.1813 14.1011 7.65093 13.9026C7.12056 13.7041 6.54525 13.6016 5.96333 13.6019H3.52999V6.76724H6.18901C7.1662 6.76742 8.11126 6.47791 8.85349 5.951L12.3988 3.4329C12.8521 3.11083 13.4202 2.92081 14.0162 2.89193C14.6121 2.86304 15.2031 2.99689 15.6985 3.27297M30.4769 14.225C30.4835 13.7614 30.3755 13.3017 30.1595 12.874C29.9435 12.4464 29.6241 12.06 29.2211 11.7386L24.6329 8.08136C24.8388 7.86372 24.9415 7.5911 24.9214 7.315C24.9013 7.03889 24.76 6.77844 24.5241 6.58286C24.2881 6.38727 23.974 6.2701 23.6409 6.25347C23.3078 6.23685 22.979 6.32194 22.7164 6.49265L21.7955 7.09162L21.6863 7.16253L17.0235 10.1996C16.7653 10.3678 16.4427 10.4532 16.1148 10.4402C15.7869 10.4271 15.4756 10.3166 15.238 10.1287L15.1143 10.0307C14.9826 9.92681 14.8773 9.8022 14.8045 9.66415C14.7317 9.5261 14.6929 9.37739 14.6904 9.22674C14.6878 9.07609 14.7216 8.92653 14.7897 8.78685C14.8578 8.64716 14.9589 8.52016 15.087 8.41329L20.4833 3.91721C21.2141 3.30815 22.1963 2.95142 23.2318 2.91894C24.2673 2.88646 25.2792 3.18065 26.0634 3.74219L29.1338 5.94195C29.8782 6.47484 30.8292 6.76779 31.8128 6.76724H34.47V14.225H30.4769Z" fill="white"/>
</svg>
