<svg width="38" height="22" viewBox="0 0 38 22" fill="none" xmlns="http://www.w3.org/2000/svg">
<path d="M18.6815 2.05659L18.6651 2.04754L17.2218 1.24337C16.2312 0.691004 15.0494 0.423051 13.8575 0.480547C12.6656 0.538044 11.5292 0.917821 10.6225 1.56172L7.07899 4.07983C6.83149 4.25528 6.51648 4.3516 6.19083 4.3514H2.16499C1.80297 4.3514 1.45577 4.47062 1.19979 4.68283C0.9438 4.89504 0.799988 5.18286 0.799988 5.48297V14.5807C0.799988 15.2054 1.41151 15.7123 2.16499 15.7123H5.96515C6.15897 15.7122 6.3506 15.7463 6.52727 15.8124C6.70395 15.8785 6.86163 15.975 6.98981 16.0955L11.2468 20.1088C11.9095 20.7332 12.8256 21.1342 13.8213 21.2357C14.8171 21.3372 15.8231 21.1322 16.6485 20.6595L17.8934 19.9459L19.2293 20.323C20.0548 20.5551 20.9481 20.5627 21.7792 20.3448C22.6103 20.1269 23.3359 19.6949 23.8503 19.1115L24.7057 18.1429L25.299 18.2093C26.1207 18.3011 26.9567 18.1839 27.6964 17.8733C28.436 17.5626 29.0445 17.0732 29.4413 16.4697L29.5305 16.3339H35.835C36.197 16.3339 36.5442 16.2147 36.8002 16.0025C37.0562 15.7903 37.2 15.5025 37.2 15.2023V5.48447C37.2 5.18437 37.0562 4.89655 36.8002 4.68434C36.5442 4.47213 36.197 4.35291 35.835 4.35291H31.811C31.4836 4.35299 31.1671 4.25554 30.9192 4.07832L27.8452 1.87705C26.563 0.958568 24.9144 0.46837 23.2203 0.501834C21.5262 0.535299 19.9077 1.09003 18.6797 2.0581M15.6949 3.12177L16.7177 3.69208L13.1505 6.66583C12.7661 6.98634 12.4627 7.36727 12.2582 7.78627C12.0537 8.20527 11.9522 8.65391 11.9597 9.10586C11.9672 9.55781 12.0834 10.004 12.3016 10.4182C12.5199 10.8324 12.8357 11.2063 13.2306 11.518L13.3543 11.6145C14.8285 12.7778 17.1072 12.8683 18.707 11.8258L22.4907 9.36347L27.3265 13.2183C27.5425 13.3903 27.6843 13.6164 27.73 13.8618C27.7758 14.1072 27.7229 14.3582 27.5795 14.5762L27.534 14.6426L27.5085 14.6818L27.0444 15.3864C26.9121 15.5873 26.7094 15.7502 26.4631 15.8537C26.2168 15.9571 25.9385 15.9962 25.6648 15.9658L24.2652 15.8104C24.022 15.7832 23.7745 15.811 23.5487 15.8906C23.3229 15.9703 23.1272 16.0989 22.9821 16.263L21.6463 17.7748C21.4749 17.9692 21.2332 18.1133 20.9563 18.186C20.6794 18.2587 20.3817 18.2563 20.1065 18.1791L18.1227 17.6209C17.921 17.5639 17.7059 17.547 17.4948 17.5713C17.2836 17.5957 17.0823 17.6607 16.907 17.7612L15.0979 18.7977C14.8226 18.9555 14.4869 19.0239 14.1547 18.99C13.8226 18.956 13.517 18.8221 13.2961 18.6136L9.03913 14.6004C8.65454 14.2383 8.1813 13.9484 7.65093 13.7499C7.12056 13.5514 6.54525 13.4489 5.96333 13.4492H3.52999V6.61453H6.18901C7.1662 6.61471 8.11126 6.3252 8.85349 5.79829L12.3988 3.28019C12.8521 2.95812 13.4202 2.7681 14.0162 2.73922C14.6121 2.71033 15.2031 2.84418 15.6985 3.12026M30.4769 14.0723C30.4835 13.6087 30.3755 13.1489 30.1595 12.7213C29.9435 12.2937 29.6241 11.9073 29.2211 11.5859L24.6329 7.92865C24.8388 7.71101 24.9415 7.43839 24.9214 7.16229C24.9013 6.88618 24.76 6.62573 24.5241 6.43015C24.2881 6.23456 23.974 6.11739 23.6409 6.10076C23.3078 6.08414 22.979 6.16923 22.7164 6.33994L21.7955 6.93891L21.6863 7.00982L17.0235 10.0469C16.7653 10.2151 16.4427 10.3005 16.1148 10.2874C15.7869 10.2744 15.4756 10.1639 15.238 9.97603L15.1143 9.87796C14.9826 9.7741 14.8773 9.64949 14.8045 9.51144C14.7317 9.37339 14.6929 9.22468 14.6904 9.07403C14.6878 8.92338 14.7216 8.77382 14.7897 8.63414C14.8578 8.49445 14.9589 8.36745 15.087 8.26058L20.4833 3.7645C21.2141 3.15544 22.1963 2.79871 23.2318 2.76623C24.2673 2.73375 25.2792 3.02794 26.0634 3.58948L29.1338 5.78924C29.8782 6.32213 30.8292 6.61508 31.8128 6.61453H34.47V14.0723H30.4769Z" fill="white"/>
</svg>
