<svg width="27" height="28" viewBox="0 0 27 28" fill="none" xmlns="http://www.w3.org/2000/svg">
<path d="M17.3863 2.10982C17.5079 2.0767 17.621 2.02199 17.7187 1.94894C17.8165 1.87589 17.8969 1.78598 17.9553 1.68452C18.0136 1.58306 18.0488 1.47212 18.0586 1.35826C18.0684 1.2444 18.0526 1.12994 18.0123 1.02163C17.972 0.913326 17.9079 0.813385 17.8238 0.727718C17.7397 0.642051 17.6373 0.572399 17.5228 0.522881C17.4082 0.473363 17.2837 0.444986 17.1567 0.439428C17.0297 0.43387 16.9027 0.451243 16.7833 0.490521C15.0012 1.02346 13.8886 2.33871 13.2344 3.74792C13.1461 3.93825 13.0655 4.1314 12.9928 4.32697C12.6365 3.72085 12.1806 3.16633 11.6405 2.68205C10.9088 2.02491 10.0355 1.50873 9.0741 1.16511C8.11265 0.821476 7.08325 0.657613 6.04887 0.683539C4.94576 0.710869 4.06516 1.50344 4.03473 2.49244C4.00587 3.42142 4.18832 4.34593 4.57094 5.20941C4.95355 6.07288 5.52829 6.85718 6.25999 7.51433L6.31895 7.56558C4.72105 7.87588 3.27695 8.64021 2.2006 9.74532C1.12425 10.8504 0.472919 12.2376 0.343093 13.7012L0.331682 13.8276C0.0805928 16.6412 0.748134 19.4595 2.25263 21.9377L2.93732 23.0617C2.95507 23.0913 2.97536 23.1198 2.99818 23.1471L4.90011 25.5419C5.33117 26.0841 5.88858 26.5354 6.53355 26.8645C7.17853 27.1935 7.89558 27.3925 8.63485 27.4474C9.37411 27.5024 10.1178 27.412 10.8143 27.1826C11.5107 26.9533 12.1431 26.5904 12.6676 26.1192C12.7481 26.0469 12.8437 25.9895 12.949 25.9503C13.0542 25.9112 13.167 25.891 13.2809 25.891C13.3949 25.891 13.5077 25.9112 13.6129 25.9503C13.7182 25.9895 13.8138 26.0469 13.8943 26.1192C14.4188 26.5904 15.0512 26.9533 15.7476 27.1826C16.4441 27.412 17.1878 27.5024 17.9271 27.4474C18.6663 27.3925 19.3834 27.1935 20.0283 26.8645C20.6733 26.5354 21.2307 26.0841 21.6618 25.5419L23.5637 23.1488L23.6246 23.0617L24.3074 21.9377C25.8119 19.4595 26.4794 16.6412 26.2283 13.8276L26.2188 13.7012C26.1346 12.7579 25.8332 11.8406 25.3336 11.0075C24.8341 10.1743 24.1473 9.44345 23.3167 8.86117C22.4862 8.27889 21.53 7.8579 20.5088 7.62488C19.4876 7.39186 18.4237 7.35189 17.3844 7.5075L14.2329 7.97894C14.2519 6.81571 14.4801 5.50728 14.9917 4.40384C15.5243 3.25085 16.3155 2.43095 17.3844 2.10982M7.39924 12.3586C7.10725 12.4415 6.83642 12.5755 6.60238 12.7529C6.36833 12.9302 6.17569 13.1474 6.03556 13.392C5.6837 13.9864 5.44216 14.9669 5.66468 16.5674C5.68964 16.7893 5.61698 17.0111 5.46222 17.1855C5.30746 17.3599 5.08289 17.4731 4.83649 17.5007C4.59009 17.5284 4.34142 17.4684 4.14363 17.3336C3.94583 17.1987 3.81459 16.9998 3.77797 16.7792C3.52502 14.9618 3.75895 13.5935 4.35806 12.5875C4.96668 11.5626 5.89292 11.0092 6.79823 10.7376C7.03758 10.666 7.29879 10.6827 7.52439 10.7841C7.74999 10.8855 7.9215 11.0632 8.0012 11.2782C8.0809 11.4931 8.06225 11.7277 7.94936 11.9303C7.83647 12.133 7.63859 12.287 7.39924 12.3586Z" fill="white"/>
</svg>
