<svg width="27" height="26" viewBox="0 0 27 26" fill="none" xmlns="http://www.w3.org/2000/svg">
<path d="M25.125 10.5938H24.1114C23.868 7.9477 22.6448 5.48806 20.6817 3.69725C18.7186 1.90643 16.1572 0.913666 13.5 0.913666C10.8428 0.913666 8.28142 1.90643 6.31831 3.69725C4.35519 5.48806 3.13197 7.9477 2.88855 10.5938H1.875C1.61807 10.5938 1.37167 10.6958 1.18999 10.8775C1.00831 11.0592 0.90625 11.3056 0.90625 11.5625C0.910506 13.8663 1.54453 16.1252 2.73974 18.0947C3.93496 20.0643 5.64589 21.6696 7.6875 22.737V23.1875C7.6875 23.7014 7.89163 24.1942 8.25498 24.5575C8.61833 24.9209 9.11114 25.125 9.625 25.125H17.375C17.8889 25.125 18.3817 24.9209 18.745 24.5575C19.1084 24.1942 19.3125 23.7014 19.3125 23.1875V22.737C21.3541 21.6696 23.065 20.0643 24.2603 18.0947C25.4555 16.1252 26.0895 13.8663 26.0938 11.5625C26.0938 11.3056 25.9917 11.0592 25.81 10.8775C25.6283 10.6958 25.3819 10.5938 25.125 10.5938ZM19.0073 4.80911C19.2293 4.99075 19.4421 5.18248 19.6455 5.3843C17.0667 6.29148 14.9356 8.1559 13.6938 10.5913H10.1215C10.727 8.89412 11.8417 7.42522 13.3133 6.38532C14.785 5.34541 16.5418 4.78521 18.3438 4.78125C18.5654 4.78125 18.787 4.79215 19.0073 4.80911ZM15.9364 10.5938C17.1109 8.8317 18.8878 7.55856 20.9339 7.01301C21.603 8.10122 22.0227 9.32407 22.163 10.5938H15.9364ZM13.5 2.84375C14.2774 2.84446 15.0512 2.94912 15.8008 3.15496C13.9752 3.60782 12.3013 4.53391 10.9477 5.83988C9.59408 7.14585 8.60866 8.78557 8.09074 10.5938H4.83695C5.07726 8.46355 6.09309 6.49627 7.69078 5.06696C9.28847 3.63766 11.3563 2.8463 13.5 2.84375Z" fill="white"/>
</svg>
