<svg width="35" height="20" viewBox="0 0 35 20" fill="none" xmlns="http://www.w3.org/2000/svg">
<path d="M17.1937 1.52364L17.178 1.51494L15.7902 0.741261C14.8377 0.209834 13.7013 -0.0479597 12.5553 0.00735697C11.4092 0.0626737 10.3166 0.428052 9.44475 1.04754L6.0375 3.47017C5.79952 3.63897 5.49663 3.73164 5.1835 3.73145H1.3125C0.964403 3.73145 0.630564 3.84615 0.384422 4.05031C0.138281 4.25447 0 4.53138 0 4.82011V13.5729C0 14.1739 0.588 14.6616 1.3125 14.6616H4.9665C5.15287 14.6615 5.33713 14.6943 5.50701 14.7579C5.67689 14.8215 5.8285 14.9143 5.95175 15.0303L10.045 18.8914C10.6822 19.4921 11.5631 19.8779 12.5205 19.9756C13.478 20.0732 14.4453 19.876 15.239 19.4212L16.436 18.7346L17.7205 19.0975C18.5143 19.3208 19.3732 19.3281 20.1723 19.1185C20.9715 18.9089 21.6691 18.4932 22.1637 17.9319L22.9863 17L23.5568 17.0639C24.3469 17.1522 25.1507 17.0395 25.8619 16.7406C26.5731 16.4418 27.1582 15.9709 27.5397 15.3903L27.6255 15.2596H33.6875C34.0356 15.2596 34.3694 15.1449 34.6156 14.9408C34.8617 14.7366 35 14.4597 35 14.171V4.82156C35 4.53283 34.8617 4.25592 34.6156 4.05176C34.3694 3.8476 34.0356 3.7329 33.6875 3.7329H29.8182C29.5035 3.73298 29.1991 3.63922 28.9607 3.46872L26.005 1.35091C24.7721 0.467254 23.1869 -0.00435875 21.558 0.027837C19.929 0.0600328 18.3728 0.593734 17.192 1.5251M14.322 2.54844L15.3055 3.09712L11.8755 5.95812C11.5058 6.26648 11.2141 6.63297 11.0175 7.03609C10.8209 7.4392 10.7233 7.87083 10.7305 8.30564C10.7377 8.74046 10.8494 9.16971 11.0593 9.56821C11.2691 9.96671 11.5728 10.3264 11.9525 10.6263L12.0715 10.7192C13.489 11.8383 15.68 11.9254 17.2182 10.9224L20.8565 8.55349L25.5063 12.2622C25.714 12.4276 25.8503 12.6452 25.8943 12.8813C25.9382 13.1173 25.8874 13.3589 25.7495 13.5686L25.7057 13.6325L25.6812 13.6702L25.235 14.3481C25.1078 14.5414 24.9129 14.6981 24.6761 14.7976C24.4393 14.8971 24.1716 14.9347 23.9085 14.9055L22.5627 14.756C22.3289 14.7298 22.0909 14.7565 21.8738 14.8332C21.6567 14.9098 21.4685 15.0335 21.329 15.1914L20.0445 16.6459C19.8797 16.8329 19.6473 16.9715 19.3811 17.0415C19.1148 17.1115 18.8286 17.1091 18.564 17.0349L16.6565 16.4978C16.4625 16.443 16.2557 16.4267 16.0527 16.4502C15.8497 16.4736 15.6561 16.5362 15.4875 16.6328L13.748 17.63C13.4833 17.7818 13.1605 17.8476 12.8411 17.815C12.5217 17.7823 12.2279 17.6535 12.0155 17.4529L7.92225 13.5918C7.55246 13.2435 7.09741 12.9646 6.58744 12.7736C6.07747 12.5826 5.52429 12.484 4.96475 12.4843H2.625V5.90877H5.18175C6.12136 5.90894 7.03007 5.63041 7.74375 5.12348L11.1528 2.70085C11.5886 2.391 12.1348 2.20818 12.7079 2.18039C13.2809 2.1526 13.8491 2.28137 14.3255 2.54699M28.5355 13.0838C28.5418 12.6378 28.4379 12.1954 28.2303 11.784C28.0226 11.3726 27.7155 11.0008 27.328 10.6916L22.9163 7.17307C23.1143 6.96368 23.2129 6.70139 23.1937 6.43576C23.1744 6.17013 23.0385 5.91955 22.8116 5.73138C22.5848 5.54321 22.2827 5.43048 21.9624 5.41449C21.6422 5.39849 21.3259 5.48035 21.0735 5.64459L20.188 6.22085L20.083 6.28908L15.5995 9.21104C15.3513 9.37281 15.0411 9.45496 14.7258 9.44243C14.4105 9.4299 14.1112 9.32353 13.8827 9.14282L13.7637 9.04847C13.6371 8.94855 13.5359 8.82866 13.4659 8.69585C13.3959 8.56303 13.3586 8.41996 13.3561 8.27502C13.3537 8.13008 13.3861 7.98619 13.4516 7.85181C13.5171 7.71742 13.6143 7.59523 13.7375 7.49241L18.9262 3.1668C19.6289 2.58083 20.5733 2.23763 21.569 2.20638C22.5647 2.17513 23.5377 2.45817 24.2917 2.99842L27.244 5.11477C27.9598 5.62746 28.8742 5.9093 29.82 5.90877H32.375V13.0838H28.5355Z" fill="white"/>
</svg>
