<svg width="37" height="21" viewBox="0 0 37 21" fill="none" xmlns="http://www.w3.org/2000/svg">
<path d="M17.8815 1.58369L17.8651 1.57464L16.4219 0.770473C15.4312 0.218104 14.2494 -0.0498498 13.0575 0.0076469C11.8656 0.0651436 10.7293 0.444921 9.82254 1.08882L6.279 3.60693C6.0315 3.78238 5.71649 3.8787 5.39084 3.8785H1.365C1.00298 3.8785 0.655786 3.99772 0.399799 4.20993C0.143812 4.42214 0 4.70996 0 5.01006V14.1078C0 14.7325 0.61152 15.2394 1.365 15.2394H5.16516C5.35898 15.2393 5.55061 15.2734 5.72729 15.3395C5.90396 15.4056 6.06164 15.5021 6.18982 15.6226L10.4468 19.6359C11.1095 20.2603 12.0256 20.6613 13.0214 20.7628C14.0171 20.8643 15.0231 20.6593 15.8486 20.1866L17.0934 19.473L18.4293 19.8501C19.2548 20.0822 20.1481 20.0898 20.9792 19.8719C21.8103 19.654 22.5359 19.222 23.0503 18.6386L23.9057 17.67L24.499 17.7364C25.3207 17.8282 26.1567 17.711 26.8964 17.4004C27.636 17.0897 28.2445 16.6003 28.6413 15.9968L28.7305 15.861H35.035C35.397 15.861 35.7442 15.7418 36.0002 15.5296C36.2562 15.3174 36.4 15.0296 36.4 14.7294V5.01157C36.4 4.71146 36.2562 4.42365 36.0002 4.21144C35.7442 3.99923 35.397 3.88001 35.035 3.88001H31.011C30.6836 3.88009 30.3671 3.78264 30.1192 3.60542L27.0452 1.40415C25.763 0.485667 24.1144 -0.00453053 22.4203 0.0289341C20.7262 0.0623987 19.1077 0.617132 17.8797 1.5852M14.8949 2.64887L15.9177 3.21918L12.3505 6.19293C11.9661 6.51344 11.6627 6.89437 11.4582 7.31337C11.2537 7.73237 11.1522 8.18101 11.1597 8.63296C11.1672 9.08491 11.2834 9.53108 11.5017 9.94528C11.7199 10.3595 12.0357 10.7334 12.4306 11.0451L12.5544 11.1416C14.0286 12.3049 16.3072 12.3954 17.907 11.3529L21.6908 8.89057L26.5265 12.7454C26.7425 12.9174 26.8843 13.1435 26.9301 13.3889C26.9758 13.6343 26.9229 13.8853 26.7795 14.1033L26.734 14.1697L26.7085 14.2089L26.2444 14.9135C26.1121 15.1144 25.9094 15.2773 25.6631 15.3808C25.4168 15.4842 25.1385 15.5233 24.8648 15.4929L23.4653 15.3375C23.2221 15.3103 22.9745 15.3381 22.7487 15.4177C22.5229 15.4974 22.3272 15.626 22.1822 15.7901L20.8463 17.3019C20.6749 17.4963 20.4332 17.6404 20.1563 17.7131C19.8794 17.7858 19.5817 17.7834 19.3066 17.7062L17.3228 17.148C17.121 17.091 16.9059 17.0741 16.6948 17.0984C16.4837 17.1228 16.2824 17.1878 16.107 17.2883L14.2979 18.3248C14.0226 18.4826 13.6869 18.551 13.3548 18.5171C13.0226 18.4831 12.717 18.3492 12.4961 18.1407L8.23914 14.1275C7.85456 13.7654 7.38131 13.4755 6.85094 13.277C6.32057 13.0785 5.74526 12.976 5.16334 12.9763H2.73V6.14163H5.38902C6.36621 6.14181 7.31127 5.8523 8.0535 5.32539L11.5989 2.80729C12.0521 2.48522 12.6202 2.2952 13.2162 2.26632C13.8121 2.23743 14.4031 2.37128 14.8985 2.64736M29.6769 13.5994C29.6835 13.1358 29.5755 12.676 29.3595 12.2484C29.1435 11.8208 28.8242 11.4344 28.4211 11.113L23.8329 7.45575C24.0388 7.23811 24.1415 6.96549 24.1214 6.68939C24.1014 6.41328 23.96 6.15283 23.7241 5.95725C23.4881 5.76166 23.174 5.64449 22.8409 5.62786C22.5078 5.61124 22.179 5.69633 21.9164 5.86704L20.9955 6.46601L20.8863 6.53692L16.2235 9.57404C15.9653 9.74218 15.6427 9.82757 15.3148 9.81454C14.9869 9.80152 14.6756 9.69096 14.4381 9.50313L14.3143 9.40506C14.1826 9.3012 14.0773 9.17659 14.0045 9.03854C13.9317 8.90049 13.8929 8.75178 13.8904 8.60113C13.8878 8.45048 13.9216 8.30092 13.9897 8.16124C14.0578 8.02155 14.1589 7.89455 14.287 7.78768L19.6833 3.2916C20.4141 2.68254 21.3963 2.32581 22.4318 2.29333C23.4673 2.26085 24.4792 2.55504 25.2634 3.11658L28.3338 5.31634C29.0782 5.84923 30.0292 6.14218 31.0128 6.14163H33.67V13.5994H29.6769Z" fill="white"/>
</svg>
