<svg width="26" height="28" viewBox="0 0 26 28" fill="none" xmlns="http://www.w3.org/2000/svg">
<path d="M17.1063 1.67141C17.2279 1.63828 17.341 1.58358 17.4387 1.51053C17.5365 1.43747 17.6169 1.34756 17.6753 1.2461C17.7336 1.14465 17.7688 1.03371 17.7786 0.919848C17.7884 0.805988 17.7726 0.69152 17.7323 0.583215C17.692 0.474911 17.6279 0.374969 17.5438 0.289302C17.4597 0.203635 17.3574 0.133983 17.2428 0.0844655C17.1282 0.0349478 17.0037 0.0065705 16.8767 0.00101225C16.7497 -0.004546 16.6227 0.0128276 16.5033 0.0521055C14.7212 0.585041 13.6086 1.9003 12.9544 3.3095C12.8661 3.49984 12.7855 3.69298 12.7128 3.88855C12.3565 3.28243 11.9006 2.72792 11.3605 2.24363C10.6288 1.58649 9.75555 1.07032 8.7941 0.72669C7.83265 0.383061 6.80325 0.219197 5.76887 0.245123C4.66576 0.272453 3.78516 1.06502 3.75473 2.05403C3.72587 2.98301 3.90832 3.90751 4.29094 4.77099C4.67355 5.63447 5.24829 6.41877 5.97999 7.07592L6.03895 7.12716C4.44105 7.43746 2.99695 8.20179 1.9206 9.30691C0.844255 10.412 0.19292 11.7991 0.0630946 13.2627L0.051683 13.3891C-0.199406 16.2028 0.468135 19.0211 1.97263 21.4993L2.65732 22.6233C2.67507 22.6529 2.69536 22.6813 2.71818 22.7087L4.62011 25.1035C5.05117 25.6456 5.60858 26.097 6.25355 26.426C6.89853 26.7551 7.61559 26.9541 8.35485 27.009C9.09411 27.064 9.83783 26.9736 10.5343 26.7442C11.2307 26.5148 11.8631 26.152 12.3876 25.6808C12.4681 25.6085 12.5637 25.5511 12.669 25.5119C12.7742 25.4727 12.887 25.4526 13.0009 25.4526C13.1149 25.4526 13.2277 25.4727 13.3329 25.5119C13.4382 25.5511 13.5338 25.6085 13.6143 25.6808C14.1388 26.152 14.7712 26.5148 15.4676 26.7442C16.1641 26.9736 16.9078 27.064 17.6471 27.009C18.3863 26.9541 19.1034 26.7551 19.7483 26.426C20.3933 26.097 20.9507 25.6456 21.3818 25.1035L23.2837 22.7104L23.3446 22.6233L24.0274 21.4993C25.5319 19.0211 26.1994 16.2028 25.9483 13.3891L25.9388 13.2627C25.8546 12.3195 25.5532 11.4022 25.0537 10.5691C24.5541 9.73591 23.8673 9.00504 23.0367 8.42276C22.2062 7.84048 21.25 7.41949 20.2288 7.18646C19.2076 6.95344 18.1437 6.91347 17.1044 7.06908L13.9529 7.54053C13.9719 6.37729 14.2001 5.06887 14.7117 3.96542C15.2443 2.81244 16.0355 1.99254 17.1044 1.67141M7.11924 11.9202C6.82725 12.0031 6.55643 12.1371 6.32238 12.3144C6.08833 12.4918 5.89569 12.709 5.75556 12.9536C5.4037 13.548 5.16216 14.5285 5.38468 16.129C5.40964 16.3509 5.33698 16.5727 5.18222 16.7471C5.02746 16.9215 4.80289 17.0346 4.55649 17.0623C4.31009 17.09 4.06142 17.03 3.86363 16.8951C3.66583 16.7603 3.5346 16.5614 3.49797 16.3408C3.24502 14.5233 3.47895 13.1551 4.07806 12.149C4.68668 11.1242 5.61292 10.5707 6.51823 10.2991C6.75758 10.2276 7.01879 10.2443 7.24439 10.3457C7.46999 10.4471 7.6415 10.6248 7.7212 10.8398C7.8009 11.0547 7.78225 11.2893 7.66937 11.4919C7.55648 11.6945 7.35859 11.8486 7.11924 11.9202Z" fill="white"/>
</svg>
